<svg width="165" height="32" viewBox="0 0 165 32" fill="none" xmlns="http://www.w3.org/2000/svg">
<g clip-path="url(#clip0_69_1715)">
<path d="M26.7657 31.7474H4.23929C1.91184 31.7474 0 29.8106 0 27.4527V4.63165C0 2.27376 1.91184 0.336914 4.23929 0.336914H26.7657C29.0932 0.336914 31.005 2.27376 31.005 4.63165V27.4527C31.005 29.8106 29.0932 31.7474 26.7657 31.7474Z" fill="#FBC331"/>
<path d="M15.0449 31.7474H26.7653C29.0928 31.7474 31.0046 29.8106 31.0046 27.4527V4.63165C31.0046 2.27376 29.0928 0.336914 26.7653 0.336914H15.0449V31.7474Z" fill="white"/>
<path d="M14.4633 14.4843C13.7983 14.3159 13.2164 13.9791 12.8839 13.558C12.5514 13.137 12.3021 12.5475 12.3021 11.8738C12.3021 11.1159 12.6346 10.4422 13.2164 10.0212C13.7152 9.68433 14.297 9.4317 14.962 9.34749V7.41064C13.632 7.49486 12.4683 7.91591 11.554 8.75801C10.5565 9.68433 9.97461 10.7791 9.97461 12.1264C9.97461 12.8001 10.0577 13.3054 10.224 13.8106C10.3902 14.3159 10.6396 14.737 10.9721 15.0738C11.3046 15.4106 11.7202 15.7475 12.1358 16.0001C12.5514 16.2527 13.0502 16.4212 13.632 16.5896C14.0477 16.6738 14.4633 16.8422 14.7958 16.9264V14.6527C14.8789 14.6527 14.6295 14.5685 14.4633 14.4843Z" fill="black"/>
<path d="M12.5514 22.1476C11.6371 21.8108 10.8058 21.2213 10.1409 20.5476H9.97461V23.3266C10.7227 23.6634 11.4708 24.0002 12.3021 24.2529C13.0502 24.5055 13.9645 24.5897 15.0451 24.5897V22.6529C14.2139 22.6529 13.3827 22.4844 12.5514 22.1476Z" fill="black"/>
<path d="M15.71 9.34751C16.6243 9.34751 17.4556 9.51593 18.2868 9.85277C19.118 10.1896 19.783 10.6107 20.2817 11.1159H20.448V8.5054C19.783 8.16856 19.0349 7.91593 18.2037 7.7475C17.4556 7.57908 16.6243 7.49487 15.71 7.49487V9.34751Z" fill="#FBC331"/>
<path d="M20.2819 16.9266C19.7831 16.2529 18.9519 15.6634 17.7882 15.3266C17.3725 15.1581 16.7907 15.0739 16.1257 14.9055C15.9594 14.9055 15.7932 14.8213 15.627 14.8213V17.095C15.9594 17.1792 16.2919 17.2634 16.7076 17.4318C17.3725 17.6002 17.9544 17.9371 18.2869 18.3581C18.6194 18.7792 18.7856 19.2844 18.7856 19.9581C18.7856 20.8002 18.4531 21.4739 17.8713 21.9792C17.3725 22.4002 16.6244 22.6529 15.7101 22.7371V24.6739C16.5413 24.6739 17.2063 24.5055 17.7882 24.2529C18.4531 24.0002 19.035 23.6634 19.5338 23.1581C20.0325 22.7371 20.365 22.1476 20.6144 21.5581C20.8637 20.9687 21.03 20.295 21.03 19.6213C21.1131 18.5266 20.7806 17.6844 20.2819 16.9266Z" fill="#FBC331"/>
<path d="M37.9038 7.66333V24.4212H35.0776V17.0949H27.0147V24.4212H24.1885V7.66333H27.0147V14.8212H35.0776V7.66333H37.9038Z" fill="#FBC331"/>
<path d="M53.0332 20.9686H45.8846L44.7208 24.4212H41.8115L47.8795 7.5791H51.1213L57.1894 24.4212H54.28L53.0332 20.9686ZM52.2851 18.7791L49.542 10.9475L46.7158 18.7791H52.2851Z" fill="#FBC331"/>
<path d="M69.9899 24.4212L66.0831 17.6844H63.9219V24.4212H61.0957V7.66333H66.9975C68.3274 7.66333 69.408 7.91596 70.3224 8.33701C71.2368 8.75807 71.9017 9.43175 72.3174 10.1896C72.733 10.9475 72.9824 11.7896 72.9824 12.716C72.9824 13.8107 72.6499 14.8212 71.9849 15.6633C71.3199 16.5896 70.3224 17.1791 68.9924 17.516L73.2317 24.5054H69.9899V24.4212ZM63.9219 15.4949H66.9975C68.0781 15.4949 68.8262 15.2423 69.3249 14.737C69.8237 14.2318 70.1562 13.5581 70.1562 12.6318C70.1562 11.7054 69.9068 11.116 69.408 10.6107C68.9093 10.1054 68.0781 9.8528 66.9975 9.8528H63.9219V15.4949Z" fill="#FBC331"/>
<path d="M80.6299 9.85279V14.737H86.5317V17.0107H80.6299V22.1475H87.2798V24.4212H77.8037V7.5791H87.2798V9.85279H80.6299Z" fill="#FBC331"/>
<path d="M102.075 24.0001C101.161 23.5791 100.413 23.0738 99.9141 22.3159C99.4154 21.558 99.166 20.7159 99.166 19.7896H102.158C102.242 20.5475 102.491 21.137 102.99 21.558C103.488 22.0633 104.237 22.2317 105.151 22.2317C106.148 22.2317 106.896 21.9791 107.395 21.558C107.894 21.137 108.226 20.5475 108.226 19.7896C108.226 19.2001 108.06 18.7791 107.728 18.4422C107.395 18.1054 106.98 17.8528 106.481 17.6001C105.982 17.4317 105.317 17.1791 104.403 17.0107C103.322 16.758 102.408 16.4212 101.66 16.1686C100.995 15.8317 100.413 15.4107 99.9141 14.8212C99.4154 14.2317 99.166 13.3896 99.166 12.2949C99.166 11.3686 99.4154 10.4422 99.9141 9.76856C100.413 9.01066 101.078 8.5054 101.992 8.08435C102.907 7.66329 103.904 7.49487 105.068 7.49487C106.73 7.49487 108.06 7.91593 109.141 8.67382C110.221 9.51593 110.803 10.6107 110.886 12.0422H107.811C107.728 11.4528 107.478 10.9475 106.896 10.4422C106.398 10.0212 105.65 9.76856 104.735 9.76856C103.904 9.76856 103.239 9.93698 102.74 10.358C102.242 10.7791 101.992 11.3686 101.992 12.1265C101.992 12.6317 102.158 13.0528 102.491 13.3896C102.823 13.7265 103.239 13.9791 103.738 14.1475C104.237 14.3159 104.902 14.5686 105.733 14.737C106.896 15.0738 107.811 15.3265 108.476 15.6633C109.224 16.0001 109.806 16.4212 110.305 17.0949C110.803 17.7686 111.053 18.6107 111.053 19.6212C111.053 20.4633 110.803 21.3054 110.388 22.0633C109.889 22.8212 109.224 23.4107 108.31 23.9159C107.395 24.337 106.398 24.5896 105.151 24.5896C103.987 24.5896 102.99 24.4212 102.075 24.0001Z" fill="white"/>
<path d="M118.368 22.2318H124.104V24.4212H115.542V7.66333H118.368V22.2318Z" fill="white"/>
<path d="M130.504 7.66333V24.4212H127.678V7.66333H130.504Z" fill="white"/>
<path d="M135.658 11.537C136.406 10.2738 137.487 9.17907 138.817 8.50538C140.147 7.74749 141.643 7.41064 143.222 7.41064C145.051 7.41064 146.63 7.8317 148.043 8.75801C149.456 9.60012 150.454 10.8633 151.119 12.4633H147.794C147.378 11.537 146.713 10.9475 145.965 10.4422C145.217 10.0212 144.303 9.76854 143.222 9.76854C142.058 9.76854 141.061 10.0212 140.23 10.5264C139.315 11.0317 138.65 11.7054 138.152 12.7159C137.653 13.6422 137.403 14.737 137.403 16.0001C137.403 17.2633 137.653 18.358 138.152 19.2843C138.65 20.2106 139.315 20.9685 140.23 21.4738C141.144 21.9791 142.141 22.2317 143.222 22.2317C144.22 22.2317 145.134 21.9791 145.965 21.558C146.713 21.137 147.378 20.4633 147.794 19.537H151.119C150.454 21.137 149.456 22.4001 148.043 23.2422C146.63 24.0843 145.051 24.5054 143.222 24.5054C141.643 24.5054 140.147 24.1685 138.817 23.4106C137.487 22.6527 136.406 21.6422 135.658 20.3791C134.91 19.1159 134.494 17.6001 134.494 16.0001C134.494 14.3159 134.827 12.8843 135.658 11.537Z" fill="white"/>
<path d="M158.35 9.85279V14.737H164.252V17.0107H158.35V22.1475H165V24.4212H155.607V7.5791H165V9.85279H158.35Z" fill="white"/>
</g>
<defs>
<clipPath id="clip0_69_1715">
<rect width="165" height="32" fill="white"/>
</clipPath>
</defs>
</svg>
