<svg width="19" height="18" viewBox="0 0 19 18" fill="none" xmlns="http://www.w3.org/2000/svg">
<path d="M8.96307 0.602273C9.02202 0.416092 9.28548 0.416093 9.34442 0.602273L11.2971 6.7702C11.3234 6.85333 11.4006 6.90983 11.4878 6.90983H17.8177C18.0101 6.90983 18.0915 7.1551 17.9372 7.27016L12.8074 11.0953C12.7391 11.1462 12.7105 11.2348 12.7363 11.316L14.6936 17.4985C14.7522 17.6836 14.539 17.8353 14.3833 17.7192L9.2733 13.9088C9.20237 13.8559 9.10512 13.8559 9.03419 13.9088L3.92416 17.7192C3.76845 17.8353 3.55531 17.6836 3.61393 17.4985L5.57124 11.316C5.59694 11.2348 5.5684 11.1462 5.50012 11.0953L0.370281 7.27016C0.215972 7.1551 0.29735 6.90983 0.489835 6.90983H6.81971C6.90691 6.90983 6.98406 6.85333 7.01038 6.7702L8.96307 0.602273Z" fill="#FFCF54"/>
</svg>
